<svg width="25" height="26" viewBox="0 0 25 26" fill="none" xmlns="http://www.w3.org/2000/svg">
<circle cx="12.5" cy="12.9988" r="12.5" fill="#FF005C"/>
<g clip-path="url(#clip0)">
<path d="M17.9695 10.7328C17.9438 10.1483 17.8494 9.74652 17.7143 9.39834C17.5749 9.02875 17.3604 8.69786 17.0794 8.42279C16.8049 8.14344 16.4725 7.92637 16.1079 7.78888C15.7584 7.65348 15.3595 7.55896 14.7761 7.53319C14.1884 7.50524 14.0019 7.49878 12.5113 7.49878C11.0208 7.49878 10.8342 7.50524 10.2487 7.53101C9.66538 7.55678 9.26434 7.65138 8.91693 7.78669C8.54798 7.92637 8.21773 8.14125 7.9432 8.42279C7.66439 8.69786 7.44783 9.03093 7.31053 9.39624C7.17539 9.74652 7.08106 10.1462 7.05534 10.7306C7.02745 11.3195 7.021 11.5064 7.021 12.9999C7.021 14.4933 7.02745 14.6802 7.05317 15.2669C7.07889 15.8514 7.1733 16.2532 7.30843 16.6014C7.44783 16.971 7.66439 17.3018 7.9432 17.5769C8.21773 17.8563 8.55016 18.0733 8.91475 18.2108C9.26434 18.3462 9.6632 18.4407 10.2466 18.4665C10.832 18.4924 11.0187 18.4987 12.5092 18.4987C13.9998 18.4987 14.1863 18.4924 14.7718 18.4665C15.3552 18.4407 15.7562 18.3462 16.1036 18.2108C16.8414 17.925 17.4248 17.3405 17.71 16.6014C17.8451 16.2511 17.9395 15.8514 17.9652 15.2669C17.9909 14.6802 17.9974 14.4933 17.9974 12.9999C17.9974 11.5064 17.9952 11.3195 17.9695 10.7328ZM16.9808 15.2239C16.9572 15.7611 16.8672 16.0512 16.7921 16.2446C16.6076 16.7238 16.228 17.1042 15.7498 17.289C15.5567 17.3642 15.2651 17.4545 14.731 17.478C14.152 17.5039 13.9783 17.5103 12.5135 17.5103C11.0487 17.5103 10.8728 17.5039 10.2959 17.478C9.75971 17.4545 9.47018 17.3642 9.27716 17.289C9.03915 17.2009 8.82251 17.0612 8.64666 16.8785C8.46437 16.7002 8.32497 16.4853 8.237 16.2468C8.16194 16.0534 8.07188 15.7611 8.04834 15.2261C8.02254 14.6459 8.01617 14.4718 8.01617 13.0041C8.01617 11.5364 8.02254 11.3603 8.04834 10.7822C8.07188 10.245 8.16194 9.95494 8.237 9.76154C8.32497 9.52299 8.46437 9.306 8.64884 9.12973C8.82678 8.94708 9.04125 8.8074 9.27934 8.71935C9.47236 8.64414 9.76407 8.5539 10.2981 8.53023C10.8771 8.50446 11.0509 8.498 12.5156 8.498C13.9826 8.498 14.1563 8.50446 14.7332 8.53023C15.2694 8.5539 15.5589 8.64414 15.7519 8.71935C15.9899 8.8074 16.2066 8.94708 16.3824 9.12973C16.5647 9.3081 16.7041 9.52299 16.7921 9.76154C16.8672 9.95494 16.9572 10.2471 16.9808 10.7822C17.0066 11.3624 17.013 11.5364 17.013 13.0041C17.013 14.4718 17.0066 14.6437 16.9808 15.2239Z" fill="white"/>
<path d="M12.5097 10.1741C10.9528 10.1741 9.68951 11.4397 9.68951 12.9998C9.68951 14.5599 10.9528 15.8256 12.5097 15.8256C14.0668 15.8256 15.33 14.5599 15.33 12.9998C15.33 11.4397 14.0668 10.1741 12.5097 10.1741ZM12.5097 14.8328C11.4997 14.8328 10.6803 14.012 10.6803 12.9998C10.6803 11.9877 11.4997 11.1668 12.5097 11.1668C13.5199 11.1668 14.3392 11.9877 14.3392 12.9998C14.3392 14.012 13.5199 14.8328 12.5097 14.8328Z" fill="white"/>
<path d="M16.1 10.0625C16.1 10.4268 15.8051 10.7222 15.4415 10.7222C15.0779 10.7222 14.7831 10.4268 14.7831 10.0625C14.7831 9.69813 15.0779 9.40283 15.4415 9.40283C15.8051 9.40283 16.1 9.69813 16.1 10.0625Z" fill="white"/>
</g>
<defs>
<clipPath id="clip0">
<rect width="11" height="11" fill="white" transform="translate(7 7.49878)"/>
</clipPath>
</defs>
</svg>
