<svg width="18" height="25" viewBox="0 0 18 25" fill="none" xmlns="http://www.w3.org/2000/svg">
<path d="M9.24157 0C14.0499 0 17.9619 3.88843 17.9619 8.66785C17.9619 14.6751 9.23299 24.9366 9.23299 24.9366C9.23299 24.9366 0.52124 14.3797 0.52124 8.66785C0.52124 3.88843 4.43306 0 9.24157 0ZM6.61046 11.2058C7.33596 11.9268 8.28869 12.2873 9.24157 12.2873C10.1943 12.2873 11.1473 11.9268 11.8725 11.2058C13.3234 9.76385 13.3234 7.41752 11.8725 5.97541C11.17 5.27681 10.2355 4.89205 9.24157 4.89205C8.24765 4.89205 7.3133 5.27696 6.61046 5.97541C5.15963 7.41752 5.15963 9.76385 6.61046 11.2058Z" fill="#e74c3c"/>
</svg>
