<svg width="25" height="26" viewBox="0 0 25 26" fill="none" xmlns="http://www.w3.org/2000/svg">
<circle cx="12.5" cy="12.9988" r="12.5" fill="#5ADA5F"/>
<path fill-rule="evenodd" clip-rule="evenodd" d="M16.3382 9.11014C15.3117 8.08245 13.9465 7.51623 12.4922 7.51562C9.49532 7.51562 7.05633 9.95455 7.05513 12.9522C7.05473 13.9104 7.30505 14.8459 7.78086 15.6704L7.00952 18.4877L9.89178 17.7317C10.686 18.1649 11.5801 18.3932 12.49 18.3934H12.4922C15.4887 18.3934 17.928 15.9543 17.9291 12.9565C17.9297 11.5037 17.3647 10.1378 16.3382 9.11014ZM12.4922 17.4752H12.4903C11.6794 17.4749 10.8842 17.257 10.1903 16.8453L10.0253 16.7474L8.31494 17.196L8.77146 15.5285L8.66398 15.3575C8.21161 14.638 7.97273 13.8064 7.97313 12.9525C7.97407 10.461 10.0013 8.4339 12.494 8.4339C13.701 8.4343 14.8357 8.90495 15.6888 9.75914C16.542 10.6133 17.0116 11.7487 17.0112 12.9562C17.0101 15.448 14.983 17.4752 12.4922 17.4752ZM14.9709 14.0907C14.8351 14.0227 14.1672 13.6941 14.0426 13.6487C13.9182 13.6034 13.8275 13.5808 13.737 13.7168C13.6464 13.8527 13.3861 14.1588 13.3068 14.2494C13.2275 14.34 13.1484 14.3514 13.0125 14.2834C12.8766 14.2154 12.4389 14.0719 11.92 13.6091C11.5162 13.2489 11.2435 12.804 11.1642 12.668C11.0851 12.532 11.1636 12.4655 11.2238 12.3908C11.3709 12.2082 11.5182 12.0167 11.5634 11.9261C11.6088 11.8354 11.5861 11.7561 11.5521 11.6881C11.5182 11.6201 11.2465 10.9514 11.1333 10.6793C11.0229 10.4146 10.911 10.4503 10.8276 10.4462C10.7484 10.4422 10.6578 10.4414 10.5672 10.4414C10.4767 10.4414 10.3295 10.4754 10.2049 10.6114C10.0804 10.7475 9.72951 11.0761 9.72951 11.7447C9.72951 12.4134 10.2163 13.0594 10.2842 13.1501C10.3521 13.2408 11.2422 14.6129 12.6049 15.2013C12.9291 15.3414 13.1821 15.4249 13.3794 15.4875C13.7049 15.5909 14.001 15.5764 14.2351 15.5414C14.4961 15.5023 15.0388 15.2127 15.1521 14.8954C15.2653 14.5781 15.2653 14.3061 15.2312 14.2494C15.1974 14.1927 15.1067 14.1588 14.9709 14.0907Z" fill="white"/>
</svg>
