<svg width="25" height="26" viewBox="0 0 25 26" fill="none" xmlns="http://www.w3.org/2000/svg">
<circle cx="12.5" cy="12.9988" r="12.5" fill="#FF0000"/>
<path fill-rule="evenodd" clip-rule="evenodd" d="M17.4399 8.7744C17.9897 8.92246 18.4232 9.35589 18.5712 9.90576C18.8462 10.9101 18.8356 13.0036 18.8356 13.0036C18.8356 13.0036 18.8356 15.0864 18.5713 16.0909C18.4232 16.6406 17.9898 17.0742 17.4399 17.2221C16.4355 17.4865 12.4178 17.4865 12.4178 17.4865C12.4178 17.4865 8.41059 17.4865 7.39567 17.2117C6.8458 17.0636 6.41237 16.6301 6.26431 16.0803C6 15.0864 6 12.993 6 12.993C6 12.993 6 10.9101 6.26431 9.90576C6.41228 9.35599 6.85638 8.91189 7.39557 8.76392C8.40002 8.49951 12.4177 8.49951 12.4177 8.49951C12.4177 8.49951 16.4355 8.49951 17.4399 8.7744ZM14.4795 12.9923L11.1385 14.9166V11.068L14.4795 12.9923Z" fill="white"/>
</svg>
